<svg width="12" height="12" viewBox="0 0 12 12" fill="#fff" stroke="#fff" xmlns="http://www.w3.org/2000/svg">
<path fill-rule="evenodd" clip-rule="evenodd" d="M2.15703 4.13074V1.86406H4.4237V4.13074H2.15703ZM0.957031 1.66406C0.957031 1.11178 1.40474 0.664062 1.95703 0.664062H4.6237C5.176 0.664062 5.62373 1.11178 5.62373 1.66406V4.33074C5.62373 4.883 5.176 5.33074 4.6237 5.33074H1.95703C1.40474 5.33074 0.957031 4.883 0.957031 4.33074V1.66406ZM8.15707 4.13074V1.86406H10.4237V4.13074H8.15707ZM6.95706 1.66406C6.95706 1.11178 7.40473 0.664062 7.95706 0.664062H10.6237C11.1759 0.664062 11.6237 1.11178 11.6237 1.66406V4.33074C11.6237 4.883 11.1759 5.33074 10.6237 5.33074H7.95706C7.40473 5.33074 6.95706 4.883 6.95706 4.33074V1.66406ZM8.15707 7.86407V10.1307H10.4237V7.86407H8.15707ZM7.95706 6.66407C7.40473 6.66407 6.95706 7.1118 6.95706 7.66407V10.3307C6.95706 10.883 7.40473 11.3307 7.95706 11.3307H10.6237C11.1759 11.3307 11.6237 10.883 11.6237 10.3307V7.66407C11.6237 7.1118 11.1759 6.66407 10.6237 6.66407H7.95706ZM2.15703 10.1307V7.86407H4.4237V10.1307H2.15703ZM0.957031 7.66407C0.957031 7.1118 1.40474 6.66407 1.95703 6.66407H4.6237C5.176 6.66407 5.62373 7.1118 5.62373 7.66407V10.3307C5.62373 10.883 5.176 11.3307 4.6237 11.3307H1.95703C1.40474 11.3307 0.957031 10.883 0.957031 10.3307V7.66407Z" fill="#fff"/>
</svg>
