<svg width="400" height="400" viewBox="0 0 400 400" fill="none" xmlns="http://www.w3.org/2000/svg">
<mask id="mask0_39_4" style="mask-type:luminance" maskUnits="userSpaceOnUse" x="0" y="0" width="400" height="400">
<path d="M0 0H400V400H0V0Z" fill="#FFA500"/>
</mask>
<g mask="url(#mask0_39_4)">
<path d="M189.75 254.583C208.267 254.517 248.75 254.367 248.283 228.617C247.833 202.283 208.95 203.867 190 204.65C187.883 204.733 186 204.817 184.467 204.833L185.333 254.617C186.583 254.583 188.083 254.583 189.75 254.583ZM187.783 182.033C203.233 182.017 236.95 181.983 236.55 158.567C236.117 134.617 203.733 136.033 187.917 136.733C186.133 136.817 184.583 136.883 183.283 136.9L184.067 182.05L187.783 182.033Z" fill="#FFA500"/>
<path fill-rule="evenodd" clip-rule="evenodd" d="M151.6 394.017C258.767 420.733 367.3 355.517 394.017 248.383C420.733 141.233 355.5 32.7001 248.333 6.00006C141.233 -20.7333 32.6999 44.5001 5.9999 151.667C-20.7168 258.8 44.4999 367.333 151.617 394.033M222.983 110.367C252.217 112.433 275.483 121 278.533 147.733C280.8 167.3 272.8 179.217 259.817 186.117C281.483 190.917 295.233 203.5 293.067 232.3C290.383 268.05 263.933 278.1 225.967 280.95L226.6 318.45L204 318.85L203.35 281.85C197.5 281.95 191.5 282.017 185.283 281.983L185.95 319.15L163.35 319.55L162.683 281.983L156.3 282.033C153.067 282.05 149.8 282.067 146.533 282.133L117.1 282.633L121.117 255.567C121.117 255.567 137.85 255.533 137.55 255.283C143.95 255.15 145.567 250.533 145.917 247.633L144.883 188.333L146.5 188.3H147.267C146.47 188.209 145.668 188.17 144.867 188.183L144.133 145.85C143.183 141.283 140.117 136.017 130.967 136.183C131.217 135.85 114.533 136.467 114.533 136.467L114.1 112.333L145.3 111.8V111.917C149.983 111.833 154.8 111.667 159.683 111.483L159.05 74.3334L181.65 73.9501L182.283 110.35C188.317 110.133 194.383 109.9 200.333 109.8L199.7 73.6334L222.317 73.2334L222.983 110.367Z" fill="#FFA500"/>
</g>
</svg>
