<svg width="157" height="58" viewBox="0 0 157 58" fill="none" xmlns="http://www.w3.org/2000/svg">
<g clip-path="url(#clip0_46_44845)">
<g clip-path="url(#clip1_46_44845)">
<g clip-path="url(#clip2_46_44845)">
<path d="M0.0649414 55.8708L0.997025 56.9423L1.92911 53.3856L2.86119 49.0715L3.79327 50.7031L4.72536 47.4242L5.65744 52.9789L6.58952 57.9983L7.52161 50.4154L8.45369 41.2154L9.38577 38.2521L10.3179 30.6748L11.2499 26.7606L12.182 25.6794L13.1141 24.6903L14.0462 25.4446L14.9783 25.2187L15.9104 25.4618L16.8424 28.4969L17.7745 30.5107L18.7066 29.9809L19.6387 28.464L20.5708 29.027L21.5029 26.1486L22.4349 29.0598L23.367 27.2538L24.2991 27.8647L25.2312 26.6605L26.1633 30.1475L27.0954 28.1846L28.0274 31.0512L28.9595 28.3138L29.8916 35.3067L30.8237 39.2112L31.7558 36.5884L32.6879 36.0663L33.6199 34.6038L34.552 35.9691L35.4841 35.1834L36.4162 34.1368L37.3483 36.9805L38.2804 35.5208L39.2124 32.0043L40.1445 30.3003L41.0766 29.3058L42.0087 29.1031L42.9408 29.7539L43.8729 32.7788L44.8049 34.3543L45.737 39.5997L46.6691 42.5527L47.6012 42.3757L48.5333 50.8975L49.4654 53.469L50.3974 46.0169L51.3295 49.6966L52.2616 47.8237L53.1937 46.9129L54.1258 44.9338L55.0579 49.004L55.9899 51.9012L56.922 51.8706L57.8541 47.3848L58.7862 47.4407L59.7183 43.228L60.6504 45.3381L61.5824 48.0774L62.5145 45.9172L63.4466 45.2087L64.3787 43.8981L65.3108 41.2051L66.2429 42.0174L67.1749 42.3482L68.107 42.716L69.0391 40.7721L69.9712 39.7743L70.9033 40.0424L71.8354 35.5331L72.7674 36.8004L73.6995 34.0285L74.6316 35.0218L75.5637 35.7939L76.4958 38.0871L77.4279 37.8485L78.3599 38.5633L79.292 39.6805L80.2241 44.1915L81.1562 40.4358L82.0883 40.9715L83.0204 42.4756L83.9524 44.1731L84.8845 43.2452L85.8166 42.5681L86.7487 43.4795L87.6808 41.5386L88.6129 37.7058L89.5449 39.6274L90.477 37.6651L91.4091 37.1746L92.3412 34.5679L93.2733 36.3733L94.2054 35.0182L95.1374 34.7938L96.0695 37.2261L97.0016 37.4095L97.9337 35.6592L98.8658 34.0847L99.7979 31.8873L100.73 30.3042L101.662 26.767L102.594 25.8546L103.526 29.1131L104.458 28.8188L105.39 27.3288L106.322 24.3843L107.255 22.5638L108.187 22.5868L109.119 23.9007L110.051 26.3392L110.983 26.1681L111.915 25.2351L112.847 24.5353L113.779 26.4822L114.711 25.2151L115.643 19.8954L116.575 12.2608L117.507 9.31596L118.44 6.32366L119.372 5.1613L120.304 3.55089L121.236 2.65533L122.168 3.4924L123.1 9.23065L124.032 7.2123L124.964 9.43406L125.896 8.93959L126.828 6.65084L127.76 4.76241L128.692 5.04345L129.625 3.85993L130.557 4.47403L131.489 2.57379L132.421 4.47541L133.353 2.74403L134.285 0.00195312L135.217 1.43076L136.149 2.57933L137.081 1.47533L138.013 5.45918L138.945 6.62488L139.877 7.65112L140.81 11.5032L141.742 8.95325L142.674 8.45766L143.606 11.9771L144.538 10.3144L145.47 8.3186L146.402 7.13735L147.334 8.53275L148.266 4.19791L149.198 6.44508L150.13 5.0641L151.062 6.12592L151.995 8.26998L152.927 5.83396L153.859 6.47744L154.791 11.0457L155.723 12.4917" stroke="#32CA5B" stroke-width="1.44991"/>
</g>
</g>
</g>
<defs>
<clipPath id="clip0_46_44845">
<rect width="156.59" height="58" fill="white" transform="translate(0.0649414)"/>
</clipPath>
<clipPath id="clip1_46_44845">
<rect width="156.59" height="58" fill="white" transform="translate(0.0649414)"/>
</clipPath>
<clipPath id="clip2_46_44845">
<rect width="156.59" height="57.9963" fill="white" transform="translate(0.0649414 0.00195312)"/>
</clipPath>
</defs>
</svg>
