<svg width="157" height="58" viewBox="0 0 157 58" fill="none" xmlns="http://www.w3.org/2000/svg">
<g clip-path="url(#clip0_46_44856)">
<g clip-path="url(#clip1_46_44856)">
<g clip-path="url(#clip2_46_44856)">
<path d="M0.0649414 0.00195312L0.997025 2.87634L1.92911 5.46688L2.86119 7.33403L3.79327 8.36349L4.72536 8.83485L5.65744 9.44306L6.58952 10.4241L7.52161 10.1637L8.45369 8.93181L9.38577 6.70548L10.3179 4.63311L11.2499 1.89279L12.182 0.248543L13.1141 0.274929L14.0462 2.07543L14.9783 2.38904L15.9104 3.14717L16.8424 3.70833L17.7745 4.01017L18.7066 5.84298L19.6387 7.50896L20.5708 7.53839L21.5029 9.05746L22.4349 9.56971L23.367 9.94869L24.2991 9.47954L25.2312 10.486L26.1633 12.0879L27.0954 12.8609L28.0274 12.8573L28.9595 13.9528L29.8916 16.3049L30.8237 18.9058L31.7558 19.6242L32.6879 21.4192L33.6199 23.076L34.552 24.8874L35.4841 26.5054L36.4162 27.8048L37.3483 29.027L38.2804 29.8117L39.2124 29.6573L40.1445 30.0615L41.0766 31.0355L42.0087 31.9991L42.9408 32.6418L43.8729 32.8521L44.8049 33.9098L45.737 34.5659L46.6691 34.5311L47.6012 34.418L48.5333 33.8884L49.4654 33.871L50.3974 32.6479L51.3295 30.8042L52.2616 30.745L53.1937 31.5164L54.1258 32.9716L55.0579 33.6997L55.9899 35.3892L56.922 34.8835L57.8541 34.7614L58.7862 34.3869L59.7183 35.3051L60.6504 35.2826L61.5824 35.5372L62.5145 37.0294L63.4466 37.3811L64.3787 37.8338L65.3108 38.6788L66.2429 38.6841L67.1749 39.0119L68.107 39.6031L69.0391 40.6519L69.9712 41.2251L70.9033 42.7262L71.8354 44.7019L72.7674 46.4229L73.6995 48.7011L74.6316 49.9508L75.5637 50.5767L76.4958 51.1692L77.4279 51.9451L78.3599 52.7599L79.292 53.9983L80.2241 54.8738L81.1562 54.5382L82.0883 54.0987L83.0204 54.6961L83.9524 55.4778L84.8845 55.7035L85.8166 55.5085L86.7487 55.6238L87.6808 55.7488L88.6129 56.2013L89.5449 56.0013L90.477 56.1847L91.4091 56.383L92.3412 56.5015L93.2733 56.0766L94.2054 56.0848L95.1374 56.5924L96.0695 57.3323L97.0016 57.9983L97.9337 57.44L98.8658 56.979L99.7979 56.8133L100.73 56.0852L101.662 55.4233L102.594 54.5008L103.526 53.8153L104.458 53.6858L105.39 53.3732L106.322 52.8446L107.255 52.6673L108.187 52.3382L109.119 51.406L110.051 50.8651L110.983 50.6181L111.915 50.4466L112.847 50.1765L113.779 49.4864L114.711 48.999L115.643 48.8724L116.575 47.9579L117.507 43.5881L118.44 40.3247L119.372 37.7167L120.304 36.182L121.236 35.3759L122.168 33.9379L123.1 33.5001L124.032 32.7972L124.964 32.8882L125.896 33.4546L126.828 33.1032L127.76 32.6154L128.692 32.1851L129.625 32.0684L130.557 32.0226L131.489 32.3286L132.421 32.1085L133.353 30.9094L134.285 29.4553L135.217 29.2388L136.149 29.3101L137.081 29.0776L138.013 28.6943L138.945 28.3443L139.877 29.3863L140.81 30.5363L141.742 31.7444L142.674 33.1372L143.606 33.8299L144.538 34.5103L145.47 34.6347L146.402 35.6992L147.334 35.7594L148.266 36.1436L149.198 35.7505L150.13 36.11L151.062 36.4498L151.995 36.6759L152.927 36.8808L153.859 36.9077L154.791 36.7585L155.723 37.7921" stroke="#FF3A33" stroke-width="1.44991"/>
</g>
</g>
</g>
<defs>
<clipPath id="clip0_46_44856">
<rect width="156.59" height="58" fill="white" transform="translate(0.0649414)"/>
</clipPath>
<clipPath id="clip1_46_44856">
<rect width="156.59" height="58" fill="white" transform="translate(0.0649414)"/>
</clipPath>
<clipPath id="clip2_46_44856">
<rect width="156.59" height="57.9963" fill="white" transform="translate(0.0649414 0.00195312)"/>
</clipPath>
</defs>
</svg>
