<svg width="17" height="16" viewBox="0 0 17 16" fill="#fff" xmlns="http://www.w3.org/2000/svg">
<g clip-path="url(#clip0_44_22163)">
<path d="M14.0191 4.66659H4.68571C4.31904 4.66659 4.01904 4.36659 4.01904 3.99992C4.01904 3.63325 4.31904 3.33325 4.68571 3.33325H14.0191C14.3857 3.33325 14.6857 3.63325 14.6857 3.99992C14.6857 4.36659 14.3857 4.66659 14.0191 4.66659Z" fill="#fff"/>
<path d="M14.0191 8.66659H4.68571C4.31904 8.66659 4.01904 8.36659 4.01904 7.99992C4.01904 7.63325 4.31904 7.33325 4.68571 7.33325H14.0191C14.3857 7.33325 14.6857 7.63325 14.6857 7.99992C14.6857 8.36659 14.3857 8.66659 14.0191 8.66659Z" fill="#fff"/>
<path d="M14.0191 12.6666H4.68571C4.31904 12.6666 4.01904 12.3666 4.01904 11.9999C4.01904 11.6333 4.31904 11.3333 4.68571 11.3333H14.0191C14.3857 11.3333 14.6857 11.6333 14.6857 11.9999C14.6857 12.3666 14.3857 12.6666 14.0191 12.6666Z" fill="#fff"/>
<path d="M2.01899 4.76673C2.4424 4.76673 2.78565 4.42348 2.78565 4.00007C2.78565 3.57665 2.4424 3.2334 2.01899 3.2334C1.59557 3.2334 1.25232 3.57665 1.25232 4.00007C1.25232 4.42348 1.59557 4.76673 2.01899 4.76673Z" fill="#fff"/>
<path d="M2.01899 8.76673C2.4424 8.76673 2.78565 8.42346 2.78565 8.00006C2.78565 7.5766 2.4424 7.2334 2.01899 7.2334C1.59557 7.2334 1.25232 7.5766 1.25232 8.00006C1.25232 8.42346 1.59557 8.76673 2.01899 8.76673Z" fill="#fff"/>
<path d="M2.01899 12.7667C2.4424 12.7667 2.78565 12.4235 2.78565 12.0001C2.78565 11.5766 2.4424 11.2334 2.01899 11.2334C1.59557 11.2334 1.25232 11.5766 1.25232 12.0001C1.25232 12.4235 1.59557 12.7667 2.01899 12.7667Z" fill="#fff"/>
</g>
<defs>
<clipPath id="clip0_44_22163">
<rect width="16" height="16" fill="white" transform="translate(0.019043)"/>
</clipPath>
</defs>
</svg>
